<svg xmlns="http://www.w3.org/2000/svg" width="1600" height="1040" viewBox="0 0 1600 1040" role="img" aria-labelledby="title desc">
  <title id="title">Common shipped flows</title>
  <desc id="desc">A polished flow poster showing three shipped paths: raw payloads through ingest, detect, and view; warehouse or object rows through source, detect, and sink; and live cloud or HR state through discovery or evaluation with optional guarded remediation. Each lane highlights its start, skill path, result, and guardrail.</desc>

  <defs>
    <linearGradient id="bg" x1="0" y1="0" x2="1" y2="1">
      <stop offset="0%" stop-color="#06111d"/>
      <stop offset="100%" stop-color="#091524"/>
    </linearGradient>
    <linearGradient id="frame" x1="0" y1="0" x2="1" y2="1">
      <stop offset="0%" stop-color="#0f1a31"/>
      <stop offset="100%" stop-color="#0c172c"/>
    </linearGradient>
    <linearGradient id="cyan" x1="0" y1="0" x2="1" y2="0">
      <stop offset="0%" stop-color="#22d3ee"/>
      <stop offset="100%" stop-color="#7dd3fc"/>
    </linearGradient>
    <linearGradient id="blue" x1="0" y1="0" x2="1" y2="0">
      <stop offset="0%" stop-color="#60a5fa"/>
      <stop offset="100%" stop-color="#93c5fd"/>
    </linearGradient>
    <linearGradient id="teal" x1="0" y1="0" x2="1" y2="0">
      <stop offset="0%" stop-color="#14b8a6"/>
      <stop offset="100%" stop-color="#5eead4"/>
    </linearGradient>
    <filter id="softShadow" x="-20%" y="-20%" width="140%" height="140%">
      <feDropShadow dx="0" dy="12" stdDeviation="20" flood-color="#020617" flood-opacity="0.42"/>
    </filter>
  </defs>

  <rect width="1600" height="1040" fill="url(#bg)"/>
  <rect x="28" y="28" width="1544" height="984" rx="34" fill="url(#frame)" stroke="#334155" stroke-width="2"/>

  <g font-family="Inter, Segoe UI, Arial, sans-serif">
    <text x="84" y="98" fill="#f8fafc" font-size="50" font-weight="800">Common shipped flows</text>
    <text x="84" y="138" fill="#dbe4f0" font-size="22">The same skill bundles keep reappearing. What changes is the start state, the output edge, and the guardrail around the path.</text>

    <rect x="84" y="170" width="1432" height="64" rx="20" fill="#111c34" stroke="#475569" stroke-width="2"/>
    <text x="116" y="210" fill="#f8fafc" font-size="18" font-weight="800">Access surfaces</text>
    <text x="268" y="210" fill="#d7e2f2" font-size="18">CLI • MCP / agents • CI • AWS / GCP / Azure runners • same underlying skill bundle contract</text>

    <text x="120" y="292" fill="#93c5fd" font-size="16" font-weight="800" letter-spacing="1.5">START</text>
    <text x="470" y="292" fill="#93c5fd" font-size="16" font-weight="800" letter-spacing="1.5">SKILL FLOW</text>
    <text x="1078" y="292" fill="#93c5fd" font-size="16" font-weight="800" letter-spacing="1.5">RESULT</text>
    <text x="1318" y="292" fill="#93c5fd" font-size="16" font-weight="800" letter-spacing="1.5">GUARDRAIL</text>

    <g transform="translate(84,314)" filter="url(#softShadow)">
      <rect x="0" y="0" width="1432" height="206" rx="30" fill="#0b3040" stroke="url(#cyan)" stroke-width="2.5"/>
      <text x="36" y="48" fill="#f8fafc" font-size="32" font-weight="800">1. Raw log detection and export</text>
      <text x="36" y="82" fill="#d7e9f0" font-size="18">Start from CloudTrail, Kubernetes audit, Okta, Entra, Workspace, or other source-native payloads that need normalization first.</text>

      <rect x="36" y="112" width="250" height="58" rx="18" fill="#17304f" stroke="#60a5fa" stroke-width="2"/>
      <text x="78" y="147" fill="#f8fafc" font-size="18" font-weight="800">raw payloads</text>

      <rect x="332" y="112" width="178" height="58" rx="18" fill="#2955d9" stroke="#bfdbfe" stroke-width="2"/>
      <text x="390" y="147" fill="#ffffff" font-size="18" font-weight="800">ingest-*</text>
      <rect x="560" y="112" width="178" height="58" rx="18" fill="#14877f" stroke="#99f6e4" stroke-width="2"/>
      <text x="618" y="147" fill="#ffffff" font-size="18" font-weight="800">detect-*</text>
      <rect x="788" y="112" width="178" height="58" rx="18" fill="#8b3dff" stroke="#ddd6fe" stroke-width="2"/>
      <text x="846" y="147" fill="#ffffff" font-size="18" font-weight="800">view/*</text>

      <path d="M286 141 L332 141" stroke="#60a5fa" stroke-width="5" fill="none"/>
      <path d="M510 141 L560 141" stroke="#8dc4ff" stroke-width="5" fill="none"/>
      <path d="M738 141 L788 141" stroke="#7ef0df" stroke-width="5" fill="none"/>

      <rect x="1020" y="112" width="238" height="58" rx="18" fill="#17304f" stroke="#7dd3fc" stroke-width="2"/>
      <text x="1070" y="147" fill="#f8fafc" font-size="18" font-weight="800">export artifact</text>

      <rect x="1280" y="112" width="116" height="58" rx="18" fill="#13253f" stroke="#22d3ee" stroke-width="2"/>
      <text x="1311" y="147" fill="#67e8f9" font-size="18" font-weight="800">read-only</text>

      <text x="36" y="194" fill="#9fe8f0" font-size="15">Example: ingest-cloudtrail-ocsf → detect-lateral-movement → convert-ocsf-to-sarif</text>
    </g>

    <g transform="translate(84,548)" filter="url(#softShadow)">
      <rect x="0" y="0" width="1432" height="206" rx="30" fill="#12253f" stroke="url(#blue)" stroke-width="2.5"/>
      <text x="36" y="48" fill="#f8fafc" font-size="32" font-weight="800">2. Warehouse or object analysis with persistence</text>
      <text x="36" y="82" fill="#d7e3f0" font-size="18">Start when data already lives in Snowflake, Databricks, ClickHouse, or object storage and analysis should stay near the data.</text>

      <rect x="36" y="112" width="250" height="58" rx="18" fill="#17304f" stroke="#38bdf8" stroke-width="2"/>
      <text x="82" y="147" fill="#f8fafc" font-size="18" font-weight="800">rows or objects</text>

      <rect x="332" y="112" width="178" height="58" rx="18" fill="#155e75" stroke="#7dd3fc" stroke-width="2"/>
      <text x="390" y="147" fill="#ffffff" font-size="18" font-weight="800">source-*</text>
      <rect x="560" y="112" width="178" height="58" rx="18" fill="#14877f" stroke="#99f6e4" stroke-width="2"/>
      <text x="618" y="147" fill="#ffffff" font-size="18" font-weight="800">detect-*</text>
      <rect x="788" y="112" width="178" height="58" rx="18" fill="#6d28d9" stroke="#c4b5fd" stroke-width="2"/>
      <text x="850" y="147" fill="#ffffff" font-size="18" font-weight="800">sink-*</text>

      <path d="M286 141 L332 141" stroke="#60a5fa" stroke-width="5" fill="none"/>
      <path d="M510 141 L560 141" stroke="#7dd3fc" stroke-width="5" fill="none"/>
      <path d="M738 141 L788 141" stroke="#7ef0df" stroke-width="5" fill="none"/>

      <rect x="1020" y="112" width="238" height="58" rx="18" fill="#17304f" stroke="#93c5fd" stroke-width="2"/>
      <text x="1070" y="147" fill="#f8fafc" font-size="18" font-weight="800">customer sink edge</text>

      <rect x="1280" y="112" width="116" height="58" rx="18" fill="#13253f" stroke="#60a5fa" stroke-width="2"/>
      <text x="1307" y="147" fill="#bfdbfe" font-size="18" font-weight="800">validated</text>

      <text x="36" y="194" fill="#bfdcff" font-size="15">Example: source-snowflake-query → detect-lateral-movement → sink-snowflake-jsonl</text>
    </g>

    <g transform="translate(84,782)" filter="url(#softShadow)">
      <rect x="0" y="0" width="1432" height="206" rx="30" fill="#083344" stroke="url(#teal)" stroke-width="2.5"/>
      <text x="36" y="48" fill="#f8fafc" font-size="32" font-weight="800">3. Live posture, discovery, and guarded action</text>
      <text x="36" y="82" fill="#d5efe9" font-size="18">Start from live cloud APIs, SaaS control planes, or HR lifecycle events where the repo needs current state, not just stored logs.</text>

      <rect x="36" y="112" width="250" height="58" rx="18" fill="#17304f" stroke="#2dd4bf" stroke-width="2"/>
      <text x="96" y="147" fill="#f8fafc" font-size="18" font-weight="800">live state</text>

      <rect x="332" y="112" width="264" height="58" rx="18" fill="#14877f" stroke="#99f6e4" stroke-width="2"/>
      <text x="368" y="147" fill="#ffffff" font-size="18" font-weight="800">discover-* / evaluation/*</text>
      <rect x="628" y="112" width="196" height="58" rx="18" fill="#4f46e5" stroke="#c7d2fe" stroke-width="2"/>
      <text x="674" y="147" fill="#ffffff" font-size="18" font-weight="800">native outputs</text>
      <rect x="856" y="112" width="220" height="58" rx="18" fill="#991b1b" stroke="#fca5a5" stroke-width="2"/>
      <text x="908" y="147" fill="#ffffff" font-size="18" font-weight="800">remediation/*</text>

      <path d="M286 141 L332 141" stroke="#2dd4bf" stroke-width="5" fill="none"/>
      <path d="M596 141 L628 141" stroke="#99f6e4" stroke-width="5" fill="none"/>
      <path d="M824 141 L856 141" stroke="#c7d2fe" stroke-width="5" fill="none"/>

      <rect x="1110" y="112" width="148" height="58" rx="18" fill="#17304f" stroke="#2dd4bf" stroke-width="2"/>
      <text x="1134" y="147" fill="#f8fafc" font-size="18" font-weight="800">evidence trail</text>

      <rect x="1280" y="112" width="116" height="58" rx="18" fill="#13253f" stroke="#22d3ee" stroke-width="2"/>
      <text x="1312" y="147" fill="#99f6e4" font-size="18" font-weight="800">HITL</text>

      <text x="36" y="194" fill="#a7f3d0" font-size="15">Example: discover-control-evidence, cspm-aws-cis-benchmark, or iam-departures-remediation</text>
    </g>
  </g>
</svg>
