<svg xmlns="http://www.w3.org/2000/svg" width="1480" height="940" viewBox="0 0 1480 940" role="img" aria-labelledby="title desc">
  <title id="title">IAM departures remediation</title>
  <desc id="desc">The flagship guarded write path. HR systems feed a reconciler that filters rehires and grace-period exceptions before writing an S3 manifest. EventBridge starts a Step Function that invokes parser and worker Lambdas with separate execution roles. The workflow applies scoped changes to AWS, Entra, GCP, Snowflake, and Databricks, then dual-writes audit records to DynamoDB and S3 with ingest-back to the warehouse and a later drift-verification loop.</desc>
  <rect width="1480" height="940" fill="#08111f"/>
  <rect x="24" y="24" width="1432" height="892" rx="32" fill="#0f172a" stroke="#334155"/>

  <g font-family="Arial, sans-serif">
    <text x="64" y="86" fill="#f8fafc" font-size="40" font-weight="700">IAM departures remediation</text>
    <text x="64" y="122" fill="#94a3b8" font-size="21">Flagship guarded write path. One closed-loop workflow with staged filters, separate roles, and dual audit.</text>

    <rect x="64" y="150" width="1352" height="70" rx="18" fill="#111c34" stroke="#475569"/>
    <text x="94" y="193" fill="#cbd5e1" font-size="20" font-weight="700">Execution roles:</text>
    <text x="266" y="193" fill="#e2e8f0" font-size="19">EventBridge</text>
    <text x="372" y="193" fill="#38bdf8" font-size="19">•</text>
    <text x="395" y="193" fill="#e2e8f0" font-size="19">Step Function</text>
    <text x="529" y="193" fill="#38bdf8" font-size="19">•</text>
    <text x="552" y="193" fill="#e2e8f0" font-size="19">parser Lambda</text>
    <text x="686" y="193" fill="#38bdf8" font-size="19">•</text>
    <text x="709" y="193" fill="#e2e8f0" font-size="19">worker Lambda</text>
    <text x="847" y="193" fill="#38bdf8" font-size="19">•</text>
    <text x="870" y="193" fill="#e2e8f0" font-size="19">cross-account remediation role</text>

    <rect x="64" y="252" width="1352" height="248" rx="28" fill="#0b2538" stroke="#22d3ee"/>
    <text x="92" y="296" fill="#ccfbf1" font-size="30" font-weight="700">1. Select and export the actionable set</text>
    <text x="92" y="330" fill="#e2e8f0" font-size="18">The reconciler is the first control point. Rehire and eligibility logic happen here before anything is written to S3.</text>

    <text x="92" y="372" fill="#67e8f9" font-size="18" font-weight="700">Inputs</text>
    <rect x="92" y="388" width="238" height="88" rx="18" fill="#13253f" stroke="#22d3ee"/>
    <text x="126" y="430" fill="#f8fafc" font-size="24" font-weight="700">HR sources</text>
    <text x="126" y="454" fill="#cbd5e1" font-size="16">Workday, Snowflake, Databricks, ClickHouse</text>

    <text x="380" y="372" fill="#67e8f9" font-size="18" font-weight="700">Control</text>
    <rect x="380" y="388" width="270" height="88" rx="18" fill="#155e75" stroke="#67e8f9"/>
    <text x="418" y="430" fill="#ecfeff" font-size="24" font-weight="700">reconciler</text>
    <text x="418" y="454" fill="#cbd5e1" font-size="16">SHA-256 row diff, rehire filter, grace check</text>

    <text x="700" y="372" fill="#67e8f9" font-size="18" font-weight="700">Manifest</text>
    <rect x="700" y="388" width="248" height="88" rx="18" fill="#13253f" stroke="#38bdf8"/>
    <text x="734" y="430" fill="#f8fafc" font-size="24" font-weight="700">S3 manifest</text>
    <text x="734" y="454" fill="#cbd5e1" font-size="16">KMS-encrypted actionable export only</text>

    <text x="998" y="372" fill="#67e8f9" font-size="18" font-weight="700">Trigger</text>
    <rect x="998" y="388" width="288" height="88" rx="18" fill="#13253f" stroke="#60a5fa"/>
    <text x="1034" y="430" fill="#f8fafc" font-size="24" font-weight="700">EventBridge rule</text>
    <text x="1034" y="454" fill="#cbd5e1" font-size="16">Object-created event starts the Step Function</text>

    <path d="M330 432 L380 432" stroke="#38bdf8" stroke-width="5" fill="none"/>
    <path d="M650 432 L700 432" stroke="#67e8f9" stroke-width="5" fill="none"/>
    <path d="M948 432 L998 432" stroke="#60a5fa" stroke-width="5" fill="none"/>

    <text x="92" y="528" fill="#22d3ee" font-size="16" font-weight="700">Guardrail:</text>
    <text x="188" y="528" fill="#cbd5e1" font-size="16">no direct Step Function entry, no rehire decisions in the worker, no action rows written for filtered identities</text>

    <rect x="64" y="532" width="1352" height="222" rx="28" fill="#10243a" stroke="#60a5fa"/>
    <text x="92" y="576" fill="#dbeafe" font-size="30" font-weight="700">2. Guarded orchestration and scoped writes</text>
    <text x="92" y="610" fill="#e2e8f0" font-size="18">The Step Function orchestrates a read-only parser gate and a scoped worker. Approval and deny rules bound the write edge.</text>

    <rect x="92" y="646" width="268" height="84" rx="18" fill="#1e3a8a" stroke="#93c5fd"/>
    <text x="128" y="686" fill="#eff6ff" font-size="23" font-weight="700">Step Function</text>
    <text x="128" y="710" fill="#cbd5e1" font-size="16">AWS-native orchestration, retries, bounded fan-out</text>

    <rect x="412" y="646" width="248" height="84" rx="18" fill="#1e3a8a" stroke="#93c5fd"/>
    <text x="452" y="686" fill="#eff6ff" font-size="23" font-weight="700">parser Lambda</text>
    <text x="452" y="710" fill="#cbd5e1" font-size="16">rechecks manifest, grace period, and IAM state</text>

    <rect x="712" y="646" width="248" height="84" rx="18" fill="#1e3a8a" stroke="#93c5fd"/>
    <text x="752" y="686" fill="#eff6ff" font-size="23" font-weight="700">worker Lambda</text>
    <text x="752" y="710" fill="#cbd5e1" font-size="16">13-step cleanup with scoped cross-cloud workers</text>

    <rect x="1012" y="646" width="312" height="84" rx="18" fill="#1e3a5f" stroke="#60a5fa"/>
    <text x="1050" y="686" fill="#eff6ff" font-size="23" font-weight="700">targets</text>
    <text x="1050" y="710" fill="#cbd5e1" font-size="16">AWS IAM, Entra ID, GCP IAM, Snowflake, Databricks</text>

    <path d="M360 688 L412 688" stroke="#60a5fa" stroke-width="5" fill="none"/>
    <path d="M660 688 L712 688" stroke="#93c5fd" stroke-width="5" fill="none"/>
    <path d="M960 688 L1012 688" stroke="#93c5fd" stroke-width="5" fill="none"/>

    <text x="92" y="782" fill="#60a5fa" font-size="16" font-weight="700">Guardrail:</text>
    <text x="188" y="782" fill="#cbd5e1" font-size="16">human_required approval, dry-run-first workflow, deny-listed identities, separate execution roles, scoped cloud principals</text>

    <rect x="64" y="786" width="1352" height="104" rx="28" fill="#083344" stroke="#2dd4bf"/>
    <text x="92" y="830" fill="#ccfbf1" font-size="30" font-weight="700">3. Dual audit, ingest-back, and drift verification</text>
    <text x="92" y="864" fill="#e2e8f0" font-size="18">Every action lands in DynamoDB and S3, then flows back into warehouse analytics. Later runs verify that state really closed.</text>

    <rect x="940" y="802" width="202" height="64" rx="18" fill="#312e81" stroke="#a78bfa"/>
    <text x="976" y="840" fill="#eef2ff" font-size="22" font-weight="700">DynamoDB + S3</text>
    <text x="976" y="860" fill="#cbd5e1" font-size="15">audit storage, KMS, PITR</text>
    <rect x="1184" y="802" width="184" height="64" rx="18" fill="#13253f" stroke="#22d3ee"/>
    <text x="1218" y="840" fill="#f8fafc" font-size="22" font-weight="700">ingest-back</text>
    <text x="1218" y="860" fill="#cbd5e1" font-size="15">warehouse reconciliation</text>
    <path d="M1324 834 C 1324 906, 220 906, 220 476" stroke="#22d3ee" stroke-width="4" stroke-dasharray="8 8" fill="none"/>
    <text x="756" y="910" fill="#22d3ee" font-size="18" font-style="italic" text-anchor="middle">drift detected → next reconciler run closes or flags it</text>
  </g>
</svg>
