<svg xmlns="http://www.w3.org/2000/svg" width="1280" height="500" viewBox="0 0 1280 500" role="img" aria-labelledby="title desc">
  <title id="title">IAM departures data flow</title>
  <desc id="desc">HR source to reconciler to S3 to EventBridge to Step Functions to parser and worker to default audit, with an optional customer-controlled sink extension.</desc>
  <rect width="1280" height="500" fill="#08111f"/>
  <text x="40" y="52" fill="#f8fafc" font-size="30" font-family="Arial, sans-serif" font-weight="700">IAM departures remediation flow</text>
  <text x="40" y="80" fill="#94a3b8" font-size="16" font-family="Arial, sans-serif">Shipped default audit path on the top lane. Optional customer-owned sink extension on the lower lane.</text>

  <g font-family="Arial, sans-serif">
    <rect x="40" y="128" width="150" height="88" rx="18" fill="#1d4ed8" stroke="#93c5fd"/>
    <text x="72" y="166" fill="#eff6ff" font-size="20" font-weight="700">HR sources</text>
    <text x="62" y="190" fill="#dbeafe" font-size="14">Workday / Snowflake</text>

    <rect x="230" y="128" width="170" height="88" rx="18" fill="#0f766e" stroke="#5eead4"/>
    <text x="262" y="166" fill="#ecfeff" font-size="20" font-weight="700">Reconciler</text>
    <text x="247" y="190" fill="#ccfbf1" font-size="14">hash diff + manifest</text>

    <rect x="440" y="128" width="140" height="88" rx="18" fill="#7c3aed" stroke="#c4b5fd"/>
    <text x="490" y="166" fill="#f5f3ff" font-size="20" font-weight="700">S3</text>
    <text x="462" y="190" fill="#ede9fe" font-size="14">versioned manifest</text>

    <rect x="620" y="128" width="170" height="88" rx="18" fill="#92400e" stroke="#fdba74"/>
    <text x="642" y="166" fill="#fff7ed" font-size="20" font-weight="700">EventBridge</text>
    <text x="653" y="190" fill="#ffedd5" font-size="14">object-created rule</text>

    <rect x="830" y="100" width="180" height="144" rx="18" fill="#111827" stroke="#94a3b8"/>
    <text x="856" y="136" fill="#f8fafc" font-size="22" font-weight="700">Step Functions</text>
    <rect x="850" y="154" width="140" height="34" rx="10" fill="#172554" stroke="#60a5fa"/>
    <text x="892" y="177" fill="#e0f2fe" font-size="15">Parser</text>
    <rect x="850" y="198" width="140" height="34" rx="10" fill="#1f2937" stroke="#2dd4bf"/>
    <text x="890" y="221" fill="#dcfce7" font-size="15">Worker</text>

    <rect x="1050" y="128" width="190" height="88" rx="18" fill="#3f1d1d" stroke="#fca5a5"/>
    <text x="1098" y="166" fill="#fff1f2" font-size="20" font-weight="700">Default audit</text>
    <text x="1074" y="190" fill="#ffe4e6" font-size="14">DynamoDB + S3 evidence</text>

    <rect x="860" y="318" width="380" height="108" rx="18" fill="none" stroke="#22d3ee" stroke-width="2" stroke-dasharray="8 6"/>
    <text x="888" y="352" fill="#67e8f9" font-size="21" font-weight="700">Optional customer-controlled sink</text>
    <text x="888" y="378" fill="#cffafe" font-size="15">Snowflake / Snowpipe, Security Lake, ClickHouse, BigQuery</text>
    <text x="888" y="402" fill="#94a3b8" font-size="14">via a dedicated sink or runner layer</text>
  </g>

  <g stroke-width="4" fill="none">
    <path d="M190 172 L230 172" stroke="#93c5fd"/>
    <path d="M400 172 L440 172" stroke="#5eead4"/>
    <path d="M580 172 L620 172" stroke="#c4b5fd"/>
    <path d="M790 172 L830 172" stroke="#fdba74"/>
    <path d="M1010 172 L1050 172" stroke="#94a3b8"/>
    <path d="M1145 216 L1145 318" stroke="#22d3ee" stroke-dasharray="8 6"/>
  </g>

  <g font-family="Arial, sans-serif">
    <text x="60" y="278" fill="#cbd5e1" font-size="18">Verification loop: audit ingest-back closes the loop and the next reconciler run confirms state convergence.</text>
    <text x="60" y="458" fill="#94a3b8" font-size="14">The external sink lane is an architecture-supported pattern, not a generic shipped sink framework.</text>
  </g>
</svg>
