<svg xmlns="http://www.w3.org/2000/svg" width="1560" height="980" viewBox="0 0 1560 980" role="img" aria-labelledby="title desc">
  <title id="title">IAM departures remediation</title>
  <desc id="desc">The flagship guarded write path begins with HR sources and a reconciler that decides which identities are actionable before exporting an S3 manifest. EventBridge starts a Step Function that invokes parser and worker Lambdas with separate roles. The worker applies scoped changes to AWS, Entra, GCP, Snowflake, and Databricks. Every action lands in DynamoDB and S3, then feeds back into later reconciliation and drift verification.</desc>
  <defs>
    <linearGradient id="bg" x1="0" y1="0" x2="0" y2="1">
      <stop offset="0%" stop-color="#07111e"/>
      <stop offset="100%" stop-color="#0b1326"/>
    </linearGradient>
    <style>
      .title { fill: #f8fafc; font: 700 42px 'IBM Plex Sans', 'Segoe UI', sans-serif; }
      .subtitle { fill: #cbd5e1; font: 400 21px 'IBM Plex Sans', 'Segoe UI', sans-serif; }
      .chip { fill: #dbeafe; font: 600 16px 'IBM Plex Sans', 'Segoe UI', sans-serif; }
      .eyebrow { fill: #67e8f9; font: 700 16px 'IBM Plex Sans', 'Segoe UI', sans-serif; letter-spacing: .08em; text-transform: uppercase; }
      .stage { fill: #f8fafc; font: 700 30px 'IBM Plex Sans', 'Segoe UI', sans-serif; }
      .body { fill: #e2e8f0; font: 400 18px 'IBM Plex Sans', 'Segoe UI', sans-serif; }
      .cardtitle { fill: #f8fafc; font: 700 27px 'IBM Plex Sans', 'Segoe UI', sans-serif; }
      .cardbody { fill: #cbd5e1; font: 400 16px 'IBM Plex Sans', 'Segoe UI', sans-serif; }
      .guardlabel { fill: #67e8f9; font: 700 16px 'IBM Plex Sans', 'Segoe UI', sans-serif; }
      .guard { fill: #cbd5e1; font: 400 16px 'IBM Plex Sans', 'Segoe UI', sans-serif; }
    </style>
  </defs>

  <rect width="1560" height="980" fill="url(#bg)"/>
  <rect x="28" y="28" width="1504" height="924" rx="34" fill="#0f172a" stroke="#334155" stroke-width="2"/>

  <g>
    <text x="72" y="92" class="title">IAM departures remediation</text>
    <text x="72" y="126" class="subtitle">Flagship guarded write path. The key control idea is simple: decide scope early, keep orchestration separate, keep writes scoped, and audit every action twice.</text>

    <rect x="72" y="158" width="1416" height="54" rx="18" fill="#101929" stroke="#475569" stroke-width="2"/>
    <text x="102" y="192" class="chip">Execution roles</text>
    <text x="260" y="192" class="chip">EventBridge</text>
    <text x="364" y="192" fill="#38bdf8" font-size="20">•</text>
    <text x="388" y="192" class="chip">Step Function</text>
    <text x="520" y="192" fill="#38bdf8" font-size="20">•</text>
    <text x="544" y="192" class="chip">parser Lambda</text>
    <text x="684" y="192" fill="#38bdf8" font-size="20">•</text>
    <text x="708" y="192" class="chip">worker Lambda</text>
    <text x="854" y="192" fill="#38bdf8" font-size="20">•</text>
    <text x="878" y="192" class="chip">cross-account remediation role</text>

    <rect x="72" y="246" width="1416" height="180" rx="28" fill="#0a2538" stroke="#22d3ee" stroke-width="2"/>
    <text x="102" y="294" class="stage">1. Select scope before anything can act</text>
    <text x="102" y="326" class="body">Rehire and grace-period filtering happen in the reconciler, not in the worker. Only the actionable set gets exported.</text>
    <rect x="102" y="348" width="260" height="58" rx="18" fill="#13253f" stroke="#60a5fa" stroke-width="2"/>
    <rect x="410" y="348" width="308" height="58" rx="18" fill="#155e75" stroke="#67e8f9" stroke-width="2"/>
    <rect x="766" y="348" width="256" height="58" rx="18" fill="#13253f" stroke="#38bdf8" stroke-width="2"/>
    <rect x="1070" y="348" width="320" height="58" rx="18" fill="#13253f" stroke="#60a5fa" stroke-width="2"/>
    <text x="136" y="384" class="cardtitle">HR sources</text>
    <text x="444" y="384" class="cardtitle">reconciler</text>
    <text x="800" y="384" class="cardtitle">S3 manifest</text>
    <text x="1104" y="384" class="cardtitle">EventBridge rule</text>
    <path d="M362 377 L410 377" stroke="#38bdf8" stroke-width="5" fill="none"/>
    <path d="M718 377 L766 377" stroke="#67e8f9" stroke-width="5" fill="none"/>
    <path d="M1022 377 L1070 377" stroke="#60a5fa" stroke-width="5" fill="none"/>
    <text x="102" y="448" class="guardlabel">Guardrail</text>
    <text x="190" y="448" class="guard">No direct Step Function entry, no rehire decisions later in the pipeline, no filtered identities written to the action manifest.</text>

    <rect x="72" y="454" width="1416" height="190" rx="28" fill="#11233b" stroke="#60a5fa" stroke-width="2"/>
    <text x="102" y="502" class="stage">2. Start the guarded workflow and re-check before write</text>
    <text x="102" y="534" class="body">EventBridge starts the Step Function. The parser Lambda re-checks the manifest and runtime state before the worker can change anything.</text>
    <rect x="102" y="556" width="264" height="60" rx="18" fill="#1e3a8a" stroke="#93c5fd" stroke-width="2"/>
    <rect x="414" y="556" width="268" height="60" rx="18" fill="#1e3a8a" stroke="#93c5fd" stroke-width="2"/>
    <rect x="730" y="556" width="268" height="60" rx="18" fill="#1e3a8a" stroke="#93c5fd" stroke-width="2"/>
    <rect x="1046" y="556" width="344" height="60" rx="18" fill="#173056" stroke="#60a5fa" stroke-width="2"/>
    <text x="136" y="594" class="cardtitle">Step Function</text>
    <text x="448" y="594" class="cardtitle">parser Lambda</text>
    <text x="764" y="594" class="cardtitle">worker Lambda</text>
    <text x="1080" y="594" class="cardtitle">targets</text>
    <path d="M366 586 L414 586" stroke="#60a5fa" stroke-width="5" fill="none"/>
    <path d="M682 586 L730 586" stroke="#93c5fd" stroke-width="5" fill="none"/>
    <path d="M998 586 L1046 586" stroke="#93c5fd" stroke-width="5" fill="none"/>
    <text x="102" y="666" class="guardlabel">Guardrail</text>
    <text x="190" y="666" class="guard">Separate roles, human-required approval, dry-run-first, and deny-listed identities keep the write edge narrow.</text>

    <rect x="72" y="672" width="1416" height="196" rx="28" fill="#083344" stroke="#2dd4bf" stroke-width="2"/>
    <text x="102" y="720" class="stage">3. Apply scoped changes and write the audit trail</text>
    <text x="102" y="752" class="body">The worker touches only the approved targets. Every action is recorded in DynamoDB and S3 as the system of record for later replay and review.</text>
    <rect x="102" y="776" width="286" height="60" rx="18" fill="#1f4b61" stroke="#2dd4bf" stroke-width="2"/>
    <rect x="436" y="776" width="250" height="60" rx="18" fill="#312e81" stroke="#a78bfa" stroke-width="2"/>
    <rect x="734" y="776" width="250" height="60" rx="18" fill="#173056" stroke="#60a5fa" stroke-width="2"/>
    <rect x="1032" y="776" width="306" height="60" rx="18" fill="#13253f" stroke="#22d3ee" stroke-width="2"/>
    <text x="136" y="814" class="cardtitle">scoped write set</text>
    <text x="470" y="814" class="cardtitle">DynamoDB + S3</text>
    <text x="768" y="814" class="cardtitle">ingest-back</text>
    <text x="1066" y="814" class="cardtitle">later drift check</text>
    <path d="M388 806 L436 806" stroke="#2dd4bf" stroke-width="5" fill="none"/>
    <path d="M686 806 L734 806" stroke="#a78bfa" stroke-width="5" fill="none"/>
    <path d="M984 806 L1032 806" stroke="#22d3ee" stroke-width="5" fill="none"/>
    <path d="M1326 860 C1326 918 286 918 286 348" stroke="#22d3ee" stroke-width="4" stroke-dasharray="10 10" fill="none"/>
    <text x="780" y="914" fill="#22d3ee" font="italic 18px 'IBM Plex Sans', 'Segoe UI', sans-serif" text-anchor="middle">drift detected → next reconciler run closes or flags it</text>
  </g>
</svg>
