<svg xmlns="http://www.w3.org/2000/svg" width="1100" height="980" viewBox="0 0 1100 980" role="img" aria-labelledby="title desc">
  <title id="title">IAM departures remediation · AWS flagship workflow</title>
  <desc id="desc">Vertical AWS-only IAM departures remediation workflow. HR data and IAM snapshots feed a security data lake. A reconciler reads the lake, filters rehires and grace-period cases, and writes an actionable S3 manifest. S3 object creation triggers EventBridge, which starts a Step Function. The Step Function invokes a parser Lambda and then a worker Lambda. The worker applies scoped AWS IAM cleanup only inside AWS. Every action is written to DynamoDB and audit S3, and the audit export feeds back into the security data lake for the next reconciler run. Azure and GCP use their own native orchestration stacks; this SVG shows the shipped AWS path only.</desc>

  <defs>
    <linearGradient id="bg" x1="0" y1="0" x2="1" y2="1">
      <stop offset="0%" stop-color="#060b17"/>
      <stop offset="100%" stop-color="#0a1325"/>
    </linearGradient>
    <radialGradient id="glow" cx="50%" cy="18%" r="65%">
      <stop offset="0%" stop-color="#1e3a8a" stop-opacity="0.28"/>
      <stop offset="100%" stop-color="#1e3a8a" stop-opacity="0"/>
    </radialGradient>
    <pattern id="grid" x="0" y="0" width="36" height="36" patternUnits="userSpaceOnUse">
      <path d="M36 0H0V36" fill="none" stroke="#1e293b" stroke-opacity="0.22" stroke-width="1"/>
    </pattern>
    <marker id="arrow" viewBox="0 0 10 10" refX="9" refY="5" markerWidth="7" markerHeight="7" orient="auto">
      <path d="M0 0L10 5L0 10Z" fill="#64748b"/>
    </marker>
    <marker id="arrowTeal" viewBox="0 0 10 10" refX="9" refY="5" markerWidth="7" markerHeight="7" orient="auto">
      <path d="M0 0L10 5L0 10Z" fill="#2dd4bf"/>
    </marker>
    <marker id="arrowPink" viewBox="0 0 10 10" refX="9" refY="5" markerWidth="7" markerHeight="7" orient="auto">
      <path d="M0 0L10 5L0 10Z" fill="#f472b6"/>
    </marker>

    <symbol id="aws" viewBox="0 0 24 24"><path fill="#f59e0b" d="M6.763 10.036c0 .296.032.535.088.71.064.176.144.368.256.576.04.063.056.127.056.183 0 .08-.048.16-.152.24l-.503.335a.383.383 0 0 1-.208.072c-.08 0-.16-.04-.239-.112a2.47 2.47 0 0 1-.287-.375 6.18 6.18 0 0 1-.248-.471c-.622.734-1.405 1.101-2.347 1.101-.67 0-1.205-.191-1.596-.574-.391-.384-.59-.894-.59-1.533 0-.678.239-1.23.726-1.644.487-.415 1.133-.623 1.955-.623.272 0 .551.024.846.064.296.04.6.104.918.176v-.583c0-.607-.127-1.03-.375-1.277-.255-.248-.686-.367-1.3-.367-.28 0-.568.031-.863.103-.295.072-.583.16-.862.272a2.287 2.287 0 0 1-.28.104.488.488 0 0 1-.127.023c-.112 0-.168-.08-.168-.247v-.391c0-.128.016-.224.056-.28a.597.597 0 0 1 .224-.167c.279-.144.614-.264 1.005-.36a4.84 4.84 0 0 1 1.246-.151c.95 0 1.644.216 2.091.647.439.43.662 1.085.662 1.963v2.586zm-3.24 1.214c.263 0 .534-.048.822-.144.287-.096.543-.271.758-.51.128-.152.224-.32.272-.512.047-.191.08-.423.08-.694v-.335a6.66 6.66 0 0 0-.735-.136 6.02 6.02 0 0 0-.75-.048c-.535 0-.926.104-1.19.32-.263.215-.39.518-.39.917 0 .375.095.655.295.846.191.2.47.296.838.296zM21.698 16.207c-2.626 1.94-6.442 2.969-9.722 2.969-4.598 0-8.74-1.7-11.87-4.526-.247-.223-.024-.527.272-.351 3.384 1.963 7.559 3.153 11.877 3.153 2.914 0 6.114-.607 9.06-1.852.439-.2.814.287.383.607zM22.792 14.961c-.336-.43-2.22-.207-3.074-.103-.255.032-.295-.192-.063-.36 1.5-1.053 3.967-.75 4.254-.399.287.36-.08 2.826-1.485 4.007-.215.184-.423.088-.327-.151.32-.79 1.03-2.57.695-2.994z"/></symbol>
    <symbol id="lambda" viewBox="0 0 24 24"><path fill="#fbbf24" d="M4.9855 0c-.2941.0031-.5335.2466-.534.5482L4.446 5.456c0 .1451.06.2835.159.3891a.5322.5322 0 0 0 .3806.1562h3.4282l8.197 17.6805a.5365.5365 0 0 0 .4885.3181h5.811c.2969 0 .5426-.2448.5426-.5482V18.544c0-.3035-.2392-.5482-.5425-.5482h-2.0138L12.7394.3153C12.647.124 12.4564 0 12.2452 0h-7.254Zm.5397 1.0907h6.3678l8.16 17.6804a.5365.5365 0 0 0 .4885.3181h1.8178v3.8173H17.437L9.2402 5.226a.536.536 0 0 0-.4885-.318H5.5223Zm2.0137 8.2366c-.2098.0011-.3937.1193-.4857.3096L.6002 23.2133a.5506.5506 0 0 0 .0313.5282.5334.5334 0 0 0 .4544.25h6.169a.5468.5468 0 0 0 .497-.3096l3.38-7.166a.5405.5405 0 0 0-.0029-.4686L8.036 9.637a.5468.5468 0 0 0-.4942-.3096Zm.0057 1.8036 2.488 5.1522-3.1214 6.6206H1.9465Z"/></symbol>
    <symbol id="s3" viewBox="0 0 24 24"><path fill="#34d399" d="M20.913 13.147l.12-.895c.947.576 1.258.922 1.354 1.071-.16.031-.562.046-1.474-.176zm-2.174 7.988a.547.547 0 0 0-.005.073c0 .084-.207.405-1.124.768a10.28 10.28 0 0 1-1.438.432c-1.405.325-3.128.504-4.853.504-4.612 0-7.412-1.184-7.412-1.704a.547.547 0 0 0-.005-.073L1.81 5.602c.135.078.28.154.432.227.042.02.086.038.128.057.134.062.272.122.417.18l.179.069c.154.058.314.114.478.168.043.013.084.029.13.043.207.065.423.127.646.187l.176.044c.175.044.353.087.534.127a23.414 23.414 0 0 0 .843.17l.121.023c.252.045.508.085.768.122.071.011.144.02.216.03.2.027.4.053.604.077l.24.027c.245.026.49.05.74.07l.081.009c.275.022.552.04.83.056l.233.012c.21.01.422.018.633.025a33.088 33.088 0 0 0 2.795-.026l.232-.011c.278-.016.555-.034.83-.056l.08-.008c.25-.02.497-.045.742-.072l.238-.026c.205-.024.408-.05.609-.077.07-.01.141-.019.211-.03.261-.037.519-.078.772-.122l.111-.02c.215-.04.427-.082.634-.125l.212-.047c.186-.041.368-.085.546-.13l.166-.042c.225-.06.444-.122.654-.189.04-.012.077-.026.115-.038a10.6 10.6 0 0 0 .493-.173c.058-.021.114-.044.17-.066.15-.06.293-.12.43-.185.038-.017.079-.034.116-.052.153-.073.3-.15.436-.228l-.976 7.245c-2.488-.78-5.805-2.292-7.311-3a1.09 1.09 0 0 0-1.088-1.085c-.6 0-1.088.489-1.088 1.088 0 .6.488 1.089 1.088 1.089.196 0 .378-.056.537-.148 1.72.812 5.144 2.367 7.715 3.15zm-7.42-20.047c5.677 0 9.676 1.759 9.75 2.736l-.014.113c-.01.033-.031.067-.048.101-.015.028-.026.057-.047.087-.024.033-.058.068-.09.102-.028.03-.051.06-.084.09-.038.035-.087.07-.133.105-.04.03-.074.06-.119.091-.053.036-.116.071-.177.107-.05.03-.095.06-.15.09-.068.036-.147.073-.222.11-.059.028-.114.057-.177.085-.084.038-.177.074-.268.111-.068.027-.13.054-.203.082-.097.036-.205.072-.31.107-.075.026-.148.053-.228.079-.111.035-.233.069-.35.103-.085.024-.165.05-.253.073-.124.034-.258.065-.389.098-.093.022-.181.046-.278.068-.139.032-.287.061-.433.091-.098.02-.191.041-.293.06-.155.03-.32.057-.482.084-.1.018-.198.036-.302.052-.166.026-.342.048-.515.072-.11.014-.213.03-.325.044-.181.023-.372.041-.56.06-.11.012-.218.025-.332.036-.188.016-.386.029-.58.043-.122.009-.24.02-.364.028-.207.012-.422.02-.635.028-.12.005-.234.012-.354.016a35.605 35.605 0 0 1-2.069 0c-.12-.004-.234-.011-.352-.016-.214-.008-.43-.016-.637-.028-.122-.008-.238-.02-.36-.027-.195-.015-.394-.028-.584-.044-.11-.01-.215-.024-.324-.035-.19-.02-.384-.038-.568-.06l-.315-.044c-.176-.024-.355-.046-.525-.073-.1-.015-.192-.033-.29-.05-.167-.028-.335-.055-.494-.086-.096-.018-.183-.038-.276-.056-.151-.032-.305-.062-.45-.095-.09-.02-.173-.043-.26-.064-.138-.034-.277-.067-.407-.102-.082-.022-.157-.046-.235-.069a11.75 11.75 0 0 1-.368-.108c-.075-.024-.141-.049-.213-.073-.11-.037-.223-.075-.325-.113-.067-.025-.125-.051-.188-.077-.096-.038-.195-.076-.282-.115-.06-.027-.11-.054-.166-.08-.08-.039-.162-.077-.233-.116-.052-.028-.094-.055-.142-.084-.063-.038-.13-.075-.185-.113-.043-.029-.075-.058-.113-.086-.048-.037-.098-.073-.139-.11-.032-.029-.054-.057-.08-.087-.033-.035-.069-.07-.093-.104-.02-.03-.031-.058-.046-.086-.018-.035-.039-.068-.049-.102l-.015-.113c.076-.977 4.074-2.736 9.748-2.736zm12.182 12.124c-.118-.628-.84-1.291-2.31-2.128l.963-7.16a.531.531 0 0 0 .005-.073C22.16 1.581 16.447 0 11.32 0 6.194 0 .482 1.581.482 3.851a.58.58 0 0 0 .005.072L2.819 21.25c.071 2.002 5.236 2.75 8.5 2.75 1.805 0 3.615-.188 5.098-.531.598-.138 1.133-.3 1.592-.48 1.18-.467 1.789-1.053 1.813-1.739l.945-7.018c.557.131 1.016.197 1.389.197.54 0 .902-.137 1.134-.413a.956.956 0 0 0 .21-.804Z"/></symbol>
    <symbol id="dynamo" viewBox="0 0 24 24"><path fill="#60a5fa" d="M16.606 20.705v-2.371c-1.263 1.082-3.884 1.795-7.066 1.795-3.184 0-5.805-.714-7.068-1.797v2.369c0 1.168 2.903 2.47 7.068 2.47 4.16 0 7.06-1.3 7.066-2.466zm.001-6.765l.817-.005v.005c0 .517-.258.998-.75 1.441.601.54.75 1.071.75 1.449a1661.7 1661.7 0 0 0 0 3.87c0 1.881-3.389 3.3-7.884 3.3-4.471 0-7.846-1.404-7.88-3.27a583.119 583.119 0 0 1-.003-3.909c.001-.375.15-.9.745-1.437-.592-.538-.743-1.062-.746-1.435v-3.892c.002-.377.153-.903.747-1.438-.593-.54-.744-1.062-.747-1.435 0-1.357-.002-2.735.002-3.897C1.674 1.412 5.056 0 9.54 0c2.159 0 4.233.356 5.689.974l-.315.766c-1.36-.58-3.319-.91-5.374-.91-4.165 0-7.067 1.3-7.067 2.47 0 1.168 2.902 2.47 7.067 2.47.115 0 .222 0 .334-.005l.033.828c-.122.006-.245.006-.367.006-3.184 0-5.805-.714-7.068-1.798v2.38c.005.45.45.843.821 1.093 1.116.736 3.114 1.239 5.34 1.342l-.037.829c-2.254-.105-4.23-.59-5.5-1.332-.318.245-.623.573-.623.952 0 1.168 2.902 2.47 7.067 2.47.411 0 .812-.014 1.203-.042l.06.826c-.41.03-.833.045-1.263.045-3.184 0-5.805-.713-7.068-1.797v2.368c.005.462.449.855.821 1.104 1.275.842 3.67 1.366 6.247 1.366h.182v.83H9.54c-2.62 0-4.99-.507-6.444-1.359-.317.245-.623.574-.623.954 0 1.168 2.902 2.47 7.067 2.47 4.159 0 7.058-1.298 7.066-2.465v-.007c0-.377-.303-.705-.62-.948a5.732 5.732 0 0 1-.662.336l-.316-.764c.3-.128.56-.266.776-.412.376-.254.823-.651.823-1.1zm4.377-6.915h-2.717a.406.406 0 0 1-.332-.173.42.42 0 0 1-.055-.375l1.204-3.597h-5.403l-2.583 4.974h2.623c.128 0 .248.06.325.164a.418.418 0 0 1 .069.36l-2.249 8.365zm1.249-.128l-10.89 11.608a.408.408 0 0 1-.498.075.418.418 0 0 1-.192-.471l2.534-9.426h-2.766a.407.407 0 0 1-.349-.2.418.418 0 0 1-.012-.407l3.014-5.804a.408.408 0 0 1 .36-.222h6.22c.132 0 .256.065.332.174a.422.422 0 0 1 .055.374l-1.204 3.598h3.1c.164 0 .31.099.375.251a.422.422 0 0 1-.08.45z"/></symbol>
  </defs>

  <rect width="1100" height="980" fill="url(#bg)"/>
  <rect width="1100" height="980" fill="url(#grid)"/>
  <rect width="1100" height="980" fill="url(#glow)"/>

  <g font-family="Inter, Segoe UI, ui-sans-serif, Arial, sans-serif">
    <g transform="translate(56,42)">
      <rect x="0" y="0" width="176" height="30" rx="15" fill="#2a1708" stroke="#f59e0b"/>
      <use href="#aws" x="12" y="7" width="16" height="16"/>
      <text x="40" y="20" fill="#fbbf24" font-size="11" font-weight="800" letter-spacing="1.4">AWS FLAGSHIP WRITE PATH</text>
    </g>
    <text x="56" y="116" font-size="38" font-weight="900" fill="#f8fafc">IAM departures remediation</text>
    <text x="56" y="148" fill="#94a3b8" font-size="17">Scope in the lake, export the actionable set, let S3 trigger the workflow, then write and audit in AWS.</text>

    <!-- Stage cards -->
    <g transform="translate(56,188)">
      <rect x="0" y="0" width="988" height="170" rx="20" fill="#0b1628" stroke="#22d3ee"/>
      <text x="28" y="34" fill="#67e8f9" font-size="12" font-weight="800" letter-spacing="1.5">1 · PLAN IN THE SECURITY DATA LAKE</text>
      <text x="28" y="58" fill="#f8fafc" font-size="16" font-weight="700">HR and IAM data land first; the reconciler decides scope before anything can write.</text>

      <rect x="28" y="86" width="260" height="56" rx="14" fill="#0b1a2e" stroke="#22d3ee"/>
      <text x="50" y="110" fill="#e0f2fe" font-size="14" font-weight="800">Security data lake</text>
      <text x="50" y="130" fill="#94a3b8" font-size="12">HR exports · IAM snapshots · prior audit exports</text>

      <path d="M288,114 L350,114" fill="none" stroke="#64748b" stroke-width="2.5" marker-end="url(#arrow)"/>

      <rect x="350" y="86" width="280" height="56" rx="14" fill="#0b1a2e" stroke="#22d3ee"/>
      <text x="372" y="110" fill="#e0f2fe" font-size="14" font-weight="800">Reconciler</text>
      <text x="372" y="130" fill="#94a3b8" font-size="12">rehire filter · grace checks · actionable set only</text>

      <path d="M630,114 L692,114" fill="none" stroke="#64748b" stroke-width="2.5" marker-end="url(#arrow)"/>

      <rect x="692" y="86" width="268" height="56" rx="14" fill="#0b2a1e" stroke="#34d399"/>
      <use href="#s3" x="710" y="102" width="22" height="22"/>
      <text x="744" y="110" fill="#d1fae5" font-size="14" font-weight="800">S3 actionable manifest</text>
      <text x="744" y="130" fill="#94a3b8" font-size="12">immutable export · object-created event source</text>
    </g>

    <g transform="translate(56,388)">
      <rect x="0" y="0" width="988" height="218" rx="20" fill="#0b1628" stroke="#60a5fa"/>
      <text x="28" y="34" fill="#93c5fd" font-size="12" font-weight="800" letter-spacing="1.5">2 · S3 EVENT STARTS THE GUARDED AWS WORKFLOW</text>
      <text x="28" y="58" fill="#f8fafc" font-size="16" font-weight="700">S3 does not invoke Lambda directly. EventBridge starts the Step Function, which gates parser then worker.</text>

      <rect x="28" y="88" width="216" height="56" rx="14" fill="#0f1d36" stroke="#60a5fa"/>
      <text x="46" y="112" fill="#dbeafe" font-size="14" font-weight="800">EventBridge rule</text>
      <text x="46" y="132" fill="#94a3b8" font-size="12">S3 ObjectCreated on manifest prefix</text>

      <path d="M244,116 L308,116" fill="none" stroke="#64748b" stroke-width="2.5" marker-end="url(#arrow)"/>

      <rect x="308" y="88" width="244" height="56" rx="14" fill="#0f1d36" stroke="#60a5fa"/>
      <text x="326" y="112" fill="#dbeafe" font-size="14" font-weight="800">Step Function</text>
      <text x="326" y="132" fill="#94a3b8" font-size="12">fan out per identity · retries · approvals</text>

      <path d="M430,144 L430,178" fill="none" stroke="#64748b" stroke-width="2.5" marker-end="url(#arrow)"/>

      <rect x="308" y="186" width="244" height="56" rx="14" fill="#2a1708" stroke="#fbbf24"/>
      <use href="#lambda" x="324" y="202" width="22" height="22"/>
      <text x="356" y="210" fill="#fef3c7" font-size="14" font-weight="800">Parser Lambda</text>
      <text x="356" y="230" fill="#94a3b8" font-size="12">re-check manifest, IAM state, and runtime guards</text>

      <path d="M430,242 L430,276" fill="none" stroke="#64748b" stroke-width="2.5" marker-end="url(#arrow)"/>

      <rect x="308" y="284" width="244" height="56" rx="14" fill="#2a1708" stroke="#fbbf24"/>
      <use href="#lambda" x="324" y="300" width="22" height="22"/>
      <text x="356" y="308" fill="#fef3c7" font-size="14" font-weight="800">Worker Lambda</text>
      <text x="356" y="328" fill="#94a3b8" font-size="12">AWS-only scoped principal · cross-account STS</text>

      <rect x="616" y="138" width="344" height="144" rx="16" fill="#12112e" stroke="#a78bfa"/>
      <text x="638" y="164" fill="#c4b5fd" font-size="12" font-weight="800" letter-spacing="1.4">AWS IAM DELETION ORDER</text>
      <text x="638" y="192" fill="#ddd6fe" font-size="12">deactivate and delete keys · delete login profile</text>
      <text x="638" y="214" fill="#ddd6fe" font-size="12">remove groups · detach managed policies · delete inline policies</text>
      <text x="638" y="236" fill="#ddd6fe" font-size="12">deactivate and delete MFA · delete signing certs · delete SSH keys</text>
      <text x="638" y="258" fill="#ddd6fe" font-size="12">delete service creds · tag for audit · delete IAM user</text>

      <path d="M552,312 L616,232" fill="none" stroke="#64748b" stroke-width="2.5" marker-end="url(#arrow)"/>
    </g>

    <g transform="translate(56,636)">
      <rect x="0" y="0" width="988" height="188" rx="20" fill="#0b1628" stroke="#2dd4bf"/>
      <text x="28" y="34" fill="#5eead4" font-size="12" font-weight="800" letter-spacing="1.5">3 · AUDIT BACK INTO AWS, THEN FEED THE LAKE</text>
      <text x="28" y="58" fill="#f8fafc" font-size="16" font-weight="700">Worker actions write to DynamoDB and S3. Those audit exports flow back into the lake for the next reconciliation pass.</text>

      <rect x="28" y="92" width="248" height="58" rx="14" fill="#0b1b2e" stroke="#60a5fa"/>
      <use href="#dynamo" x="46" y="110" width="22" height="22"/>
      <text x="80" y="116" fill="#dbeafe" font-size="14" font-weight="800">DynamoDB audit</text>
      <text x="80" y="136" fill="#94a3b8" font-size="12">fast lookup for user, step, timestamp, replay state</text>

      <rect x="312" y="92" width="248" height="58" rx="14" fill="#0b2a1e" stroke="#34d399"/>
      <use href="#s3" x="330" y="110" width="22" height="22"/>
      <text x="364" y="116" fill="#d1fae5" font-size="14" font-weight="800">S3 audit export · KMS</text>
      <text x="364" y="136" fill="#94a3b8" font-size="12">immutable evidence, manifests, and worker logs</text>

      <path d="M560,121 L640,121" fill="none" stroke="#2dd4bf" stroke-width="2.5" marker-end="url(#arrowTeal)"/>

      <rect x="640" y="92" width="320" height="58" rx="14" fill="#0b3d3b" stroke="#2dd4bf"/>
      <text x="660" y="116" fill="#ccfbf1" font-size="14" font-weight="800">Security data lake ingest-back</text>
      <text x="660" y="136" fill="#94a3b8" font-size="12">audit rows and exports feed the next reconciler run and drift checks</text>

      <path d="M800,150 C800,186 520,186 520,212 C520,238 180,238 180,204" fill="none" stroke="#f472b6" stroke-width="2.5" stroke-dasharray="6 5" marker-end="url(#arrowPink)"/>
      <text x="598" y="214" fill="#f9a8d4" font-size="12" font-weight="800">next run closes or flags drift</text>
    </g>

    <g transform="translate(56,856)">
      <rect x="0" y="0" width="988" height="74" rx="14" fill="#12112e" stroke="#64748b"/>
      <text x="22" y="28" fill="#f1f5f9" font-size="12" font-weight="800" letter-spacing="0.4">AWS is the shipped orchestration. Azure and GCP use equivalent native stacks, not this worker.</text>
      <text x="22" y="52" fill="#94a3b8" font-size="12">Azure pattern: Blob/Event Grid → Logic Apps or Durable Functions → Functions → Table/Cosmos + Blob. GCP pattern: GCS/Eventarc → Workflows → Cloud Run Jobs or Functions → Firestore + GCS. One cloud per worker stays the rule.</text>
    </g>
  </g>
</svg>
