<svg xmlns="http://www.w3.org/2000/svg" width="1600" height="980" viewBox="0 0 1600 980" role="img" aria-labelledby="title desc">
  <title id="title">IAM departures remediation flagship path</title>
  <desc id="desc">A polished workflow poster for the IAM departures remediation family. HR systems feed a reconciler that filters rehires and grace-window exceptions before writing an S3 manifest. EventBridge starts a Step Function, the parser Lambda re-checks runtime state, the worker Lambda executes only scoped changes, and the workflow records a dual audit trail before later drift verification closes the loop.</desc>

  <defs>
    <linearGradient id="bg" x1="0" y1="0" x2="1" y2="1">
      <stop offset="0%" stop-color="#06111d"/>
      <stop offset="100%" stop-color="#091523"/>
    </linearGradient>
    <linearGradient id="frame" x1="0" y1="0" x2="1" y2="1">
      <stop offset="0%" stop-color="#101b31"/>
      <stop offset="100%" stop-color="#0c172b"/>
    </linearGradient>
    <linearGradient id="scope" x1="0" y1="0" x2="1" y2="0">
      <stop offset="0%" stop-color="#22d3ee"/>
      <stop offset="100%" stop-color="#67e8f9"/>
    </linearGradient>
    <linearGradient id="workflow" x1="0" y1="0" x2="1" y2="0">
      <stop offset="0%" stop-color="#60a5fa"/>
      <stop offset="100%" stop-color="#93c5fd"/>
    </linearGradient>
    <linearGradient id="audit" x1="0" y1="0" x2="1" y2="0">
      <stop offset="0%" stop-color="#14b8a6"/>
      <stop offset="100%" stop-color="#a78bfa"/>
    </linearGradient>
    <filter id="softShadow" x="-20%" y="-20%" width="140%" height="140%">
      <feDropShadow dx="0" dy="12" stdDeviation="20" flood-color="#020617" flood-opacity="0.42"/>
    </filter>

    <symbol id="aws" viewBox="0 0 64 64">
      <rect x="4" y="4" width="56" height="56" rx="16" fill="#111827"/>
      <path fill="#f59e0b" d="M18 35c7 5 18 6 28 1 1-1 3 1 1 2-4 4-12 6-20 6-5 0-10-1-13-4-1-1 0-4 4-5zm24-16c2 1 3 4 2 8-1 2-2 4-4 6 3 0 7 1 9 3 1 1 1 3-1 2-3-1-7-1-11-1-4 0-8 0-11 2-1 0-2-1-1-2 2-2 5-3 8-4-1-1-2-3-3-5-1-5 1-8 4-10 2-1 6-1 8 1z"/>
    </symbol>
    <symbol id="azure" viewBox="0 0 64 64">
      <rect x="4" y="4" width="56" height="56" rx="16" fill="#111827"/>
      <path fill="#38bdf8" d="M31 13h12l8 30H39l-4-12-7 12H14l17-30zm-3 18 5 8h10l-4-13-11 5z"/>
    </symbol>
    <symbol id="gcp" viewBox="0 0 64 64">
      <rect x="4" y="4" width="56" height="56" rx="16" fill="#111827"/>
      <path fill="#60a5fa" d="M24 17c-5 2-9 8-9 15 0 9 7 17 17 17 6 0 10-2 14-6l-6-5c-2 2-4 3-8 3-5 0-9-4-9-9s4-9 9-9c2 0 5 1 7 3l6-5c-4-4-9-6-14-6-2 0-5 1-7 2z"/>
      <path fill="#34d399" d="M46 26h-14v7h14c-1 5-5 8-11 8l4 6c9-2 15-8 15-18 0-1 0-2-1-3h-7z"/>
    </symbol>
    <symbol id="snowflake" viewBox="0 0 64 64">
      <rect x="4" y="4" width="56" height="56" rx="16" fill="#111827"/>
      <path stroke="#7dd3fc" stroke-width="4" stroke-linecap="round" d="M32 14v36M16 23l32 18M16 41l32-18"/>
      <path stroke="#7dd3fc" stroke-width="4" stroke-linecap="round" d="M22 14l20 36M42 14L22 50"/>
    </symbol>
    <symbol id="dbx" viewBox="0 0 64 64">
      <rect x="4" y="4" width="56" height="56" rx="16" fill="#111827"/>
      <path fill="#ef4444" d="M13 22l19-11 19 11-19 11zm0 10 19 11 19-11v8L32 51 13 40zm0-7 19 11 19-11v4L32 40 13 29z"/>
    </symbol>
  </defs>

  <rect width="1600" height="980" fill="url(#bg)"/>
  <rect x="28" y="26" width="1544" height="928" rx="34" fill="url(#frame)" stroke="#334155" stroke-width="2"/>

  <g font-family="Inter, Segoe UI, Arial, sans-serif">
    <text x="84" y="98" fill="#f8fafc" font-size="50" font-weight="800">IAM departures remediation</text>
    <text x="84" y="138" fill="#dbe4f0" font-size="22">Flagship guarded write path. Decide scope before act, re-check before write, record every action twice, and verify later drift.</text>

    <rect x="84" y="172" width="1432" height="64" rx="20" fill="#111c34" stroke="#475569" stroke-width="2"/>
    <text x="118" y="212" fill="#f8fafc" font-size="18" font-weight="800">Execution roles</text>
    <text x="278" y="212" fill="#d7e2f2" font-size="18">EventBridge • Step Function • parser Lambda • worker Lambda • cross-account remediation role</text>

    <g transform="translate(84,270)" filter="url(#softShadow)">
      <rect x="0" y="0" width="1432" height="198" rx="30" fill="#0b3040" stroke="url(#scope)" stroke-width="2.5"/>
      <text x="36" y="48" fill="#f8fafc" font-size="32" font-weight="800">1. Select scope before anything can act</text>
      <text x="36" y="82" fill="#d7e9f0" font-size="18">The reconciler is the first real control gate. Rehire and grace-period rules happen here before any actionable set is written.</text>

      <rect x="36" y="114" width="258" height="62" rx="18" fill="#17304f" stroke="#60a5fa" stroke-width="2"/>
      <text x="102" y="152" fill="#f8fafc" font-size="18" font-weight="800">HR sources</text>

      <rect x="348" y="114" width="342" height="62" rx="18" fill="#19607a" stroke="#67e8f9" stroke-width="2"/>
      <text x="448" y="152" fill="#f8fafc" font-size="18" font-weight="800">reconciler</text>

      <rect x="744" y="114" width="258" height="62" rx="18" fill="#17304f" stroke="#60a5fa" stroke-width="2"/>
      <text x="826" y="152" fill="#f8fafc" font-size="18" font-weight="800">S3 manifest</text>

      <rect x="1056" y="114" width="320" height="62" rx="18" fill="#17304f" stroke="#60a5fa" stroke-width="2"/>
      <text x="1142" y="152" fill="#f8fafc" font-size="18" font-weight="800">EventBridge rule</text>

      <path d="M294 145 L348 145" stroke="#67e8f9" stroke-width="5" fill="none"/>
      <path d="M690 145 L744 145" stroke="#60a5fa" stroke-width="5" fill="none"/>
      <path d="M1002 145 L1056 145" stroke="#60a5fa" stroke-width="5" fill="none"/>

      <text x="36" y="190" fill="#99f6e4" font-size="15" font-weight="800">Guardrail</text>
      <text x="132" y="190" fill="#dbe4f0" font-size="15">No direct Step Function entry, no rehire logic later in the flow, no filtered identities written to the action manifest.</text>
    </g>

    <g transform="translate(84,498)" filter="url(#softShadow)">
      <rect x="0" y="0" width="1432" height="206" rx="30" fill="#11263d" stroke="url(#workflow)" stroke-width="2.5"/>
      <text x="36" y="48" fill="#f8fafc" font-size="32" font-weight="800">2. Start the guarded workflow and re-check before write</text>
      <text x="36" y="82" fill="#dce6f4" font-size="18">EventBridge starts the Step Function. The parser Lambda re-checks the manifest and current state before the worker touches any target.</text>

      <rect x="36" y="114" width="266" height="62" rx="18" fill="#2942a4" stroke="#93c5fd" stroke-width="2"/>
      <text x="98" y="152" fill="#f8fafc" font-size="18" font-weight="800">Step Function</text>

      <rect x="356" y="114" width="266" height="62" rx="18" fill="#2942a4" stroke="#93c5fd" stroke-width="2"/>
      <text x="422" y="152" fill="#f8fafc" font-size="18" font-weight="800">parser Lambda</text>

      <rect x="676" y="114" width="266" height="62" rx="18" fill="#2942a4" stroke="#93c5fd" stroke-width="2"/>
      <text x="740" y="152" fill="#f8fafc" font-size="18" font-weight="800">worker Lambda</text>

      <rect x="996" y="114" width="380" height="62" rx="18" fill="#203d66" stroke="#60a5fa" stroke-width="2"/>
      <text x="1120" y="152" fill="#f8fafc" font-size="18" font-weight="800">scoped targets</text>

      <path d="M302 145 L356 145" stroke="#93c5fd" stroke-width="5" fill="none"/>
      <path d="M622 145 L676 145" stroke="#93c5fd" stroke-width="5" fill="none"/>
      <path d="M942 145 L996 145" stroke="#93c5fd" stroke-width="5" fill="none"/>

      <g transform="translate(1038,96)">
        <use href="#aws" width="42" height="42"/>
        <use href="#azure" x="50" width="42" height="42"/>
        <use href="#gcp" x="100" width="42" height="42"/>
        <use href="#snowflake" x="150" width="42" height="42"/>
        <use href="#dbx" x="200" width="42" height="42"/>
      </g>

      <text x="36" y="198" fill="#bfdbfe" font-size="15" font-weight="800">Guardrail</text>
      <text x="132" y="198" fill="#dbe4f0" font-size="15">Separate roles, human-required approval, dry-run-first, scoped principals, deny-listed identities, and no direct orchestration bypass.</text>
    </g>

    <g transform="translate(84,734)" filter="url(#softShadow)">
      <rect x="0" y="0" width="1432" height="190" rx="30" fill="#083344" stroke="url(#audit)" stroke-width="2.5"/>
      <text x="36" y="48" fill="#f8fafc" font-size="32" font-weight="800">3. Apply scoped changes and write the audit trail</text>
      <text x="36" y="82" fill="#d5efe9" font-size="18">The worker touches only approved targets. The system of record is DynamoDB plus S3, then later ingest-back and verification close the loop.</text>

      <rect x="36" y="112" width="260" height="62" rx="18" fill="#155e75" stroke="#5eead4" stroke-width="2"/>
      <text x="92" y="150" fill="#f8fafc" font-size="18" font-weight="800">scoped write set</text>

      <rect x="352" y="112" width="286" height="62" rx="18" fill="#4c1d95" stroke="#c4b5fd" stroke-width="2"/>
      <text x="432" y="150" fill="#f8fafc" font-size="18" font-weight="800">DynamoDB + S3</text>

      <rect x="694" y="112" width="250" height="62" rx="18" fill="#17304f" stroke="#60a5fa" stroke-width="2"/>
      <text x="770" y="150" fill="#f8fafc" font-size="18" font-weight="800">ingest-back</text>

      <rect x="1000" y="112" width="344" height="62" rx="18" fill="#17304f" stroke="#22d3ee" stroke-width="2"/>
      <text x="1100" y="150" fill="#f8fafc" font-size="18" font-weight="800">later drift check</text>

      <path d="M296 143 L352 143" stroke="#5eead4" stroke-width="5" fill="none"/>
      <path d="M638 143 L694 143" stroke="#c4b5fd" stroke-width="5" fill="none"/>
      <path d="M944 143 L1000 143" stroke="#60a5fa" stroke-width="5" fill="none"/>
      <path d="M1324 174 C 1298 214, 1180 220, 976 220 C 662 220, 434 201, 264 68" stroke="#22d3ee" stroke-width="4" stroke-dasharray="10 10" fill="none"/>
      <text x="846" y="205" fill="#67e8f9" font-size="17" font-style="italic" text-anchor="middle">drift detected → next reconciler run closes or flags it</text>
    </g>
  </g>
</svg>
