<svg xmlns="http://www.w3.org/2000/svg" width="1600" height="980" viewBox="0 0 1600 980" role="img" aria-labelledby="title desc">
  <title id="title">cloud-ai-security-skills repository architecture</title>
  <desc id="desc">A polished architecture poster showing the repo as three action bands. External signals enter through ingest and discover, move into detect and evaluate, and exit through view or guarded remediation. The same skill bundle contract sits underneath every lane, with source and sink edges, warehouse query packs, and runtime surfaces wrapped around it.</desc>

  <defs>
    <linearGradient id="bg" x1="0" y1="0" x2="1" y2="1">
      <stop offset="0%" stop-color="#050b15"/>
      <stop offset="100%" stop-color="#081525"/>
    </linearGradient>
    <linearGradient id="frame" x1="0" y1="0" x2="1" y2="1">
      <stop offset="0%" stop-color="#101b31"/>
      <stop offset="100%" stop-color="#0d172b"/>
    </linearGradient>
    <linearGradient id="intake" x1="0" y1="0" x2="1" y2="0">
      <stop offset="0%" stop-color="#2563eb"/>
      <stop offset="100%" stop-color="#38bdf8"/>
    </linearGradient>
    <linearGradient id="analyze" x1="0" y1="0" x2="1" y2="0">
      <stop offset="0%" stop-color="#0f766e"/>
      <stop offset="100%" stop-color="#34d399"/>
    </linearGradient>
    <linearGradient id="act" x1="0" y1="0" x2="1" y2="0">
      <stop offset="0%" stop-color="#c2410c"/>
      <stop offset="100%" stop-color="#a855f7"/>
    </linearGradient>
    <filter id="softShadow" x="-20%" y="-20%" width="140%" height="140%">
      <feDropShadow dx="0" dy="12" stdDeviation="20" flood-color="#020617" flood-opacity="0.42"/>
    </filter>
    <filter id="innerGlow" x="-20%" y="-20%" width="140%" height="140%">
      <feDropShadow dx="0" dy="0" stdDeviation="8" flood-color="#60a5fa" flood-opacity="0.20"/>
    </filter>

    <symbol id="aws" viewBox="0 0 64 64">
      <rect x="4" y="4" width="56" height="56" rx="16" fill="#111827"/>
      <path fill="#f59e0b" d="M18 35c7 5 18 6 28 1 1-1 3 1 1 2-4 4-12 6-20 6-5 0-10-1-13-4-1-1 0-4 4-5zm24-16c2 1 3 4 2 8-1 2-2 4-4 6 3 0 7 1 9 3 1 1 1 3-1 2-3-1-7-1-11-1-4 0-8 0-11 2-1 0-2-1-1-2 2-2 5-3 8-4-1-1-2-3-3-5-1-5 1-8 4-10 2-1 6-1 8 1z"/>
    </symbol>
    <symbol id="gcp" viewBox="0 0 64 64">
      <rect x="4" y="4" width="56" height="56" rx="16" fill="#111827"/>
      <path fill="#60a5fa" d="M24 17c-5 2-9 8-9 15 0 9 7 17 17 17 6 0 10-2 14-6l-6-5c-2 2-4 3-8 3-5 0-9-4-9-9s4-9 9-9c2 0 5 1 7 3l6-5c-4-4-9-6-14-6-2 0-5 1-7 2z"/>
      <path fill="#34d399" d="M46 26h-14v7h14c-1 5-5 8-11 8l4 6c9-2 15-8 15-18 0-1 0-2-1-3h-7z"/>
    </symbol>
    <symbol id="azure" viewBox="0 0 64 64">
      <rect x="4" y="4" width="56" height="56" rx="16" fill="#111827"/>
      <path fill="#38bdf8" d="M31 13h12l8 30H39l-4-12-7 12H14l17-30zm-3 18 5 8h10l-4-13-11 5z"/>
    </symbol>
    <symbol id="k8s" viewBox="0 0 64 64">
      <rect x="4" y="4" width="56" height="56" rx="16" fill="#111827"/>
      <circle cx="32" cy="32" r="16" fill="#60a5fa"/>
      <circle cx="32" cy="32" r="6" fill="#e0f2fe"/>
      <path d="M32 12v9M32 43v9M12 32h9M43 32h9M18 18l6 6M40 40l6 6M46 18l-6 6M18 46l6-6" stroke="#e0f2fe" stroke-width="3" stroke-linecap="round"/>
    </symbol>
    <symbol id="okta" viewBox="0 0 64 64">
      <rect x="4" y="4" width="56" height="56" rx="16" fill="#111827"/>
      <circle cx="32" cy="32" r="18" fill="none" stroke="#3b82f6" stroke-width="8"/>
    </symbol>
    <symbol id="dbx" viewBox="0 0 64 64">
      <rect x="4" y="4" width="56" height="56" rx="16" fill="#111827"/>
      <path fill="#ef4444" d="M13 22l19-11 19 11-19 11zm0 10 19 11 19-11v8L32 51 13 40zm0-7 19 11 19-11v4L32 40 13 29z"/>
    </symbol>
    <symbol id="snowflake" viewBox="0 0 64 64">
      <rect x="4" y="4" width="56" height="56" rx="16" fill="#111827"/>
      <path stroke="#7dd3fc" stroke-width="4" stroke-linecap="round" d="M32 14v36M16 23l32 18M16 41l32-18"/>
      <path stroke="#7dd3fc" stroke-width="4" stroke-linecap="round" d="M22 14l20 36M42 14L22 50"/>
    </symbol>
  </defs>

  <rect width="1600" height="980" fill="url(#bg)"/>
  <rect x="28" y="26" width="1544" height="928" rx="34" fill="url(#frame)" stroke="#334155" stroke-width="2"/>

  <g font-family="Inter, Segoe UI, Arial, sans-serif">
    <text x="84" y="102" fill="#f8fafc" font-size="52" font-weight="800">cloud-ai-security-skills</text>
    <text x="84" y="145" fill="#d7e2f2" font-size="24" font-weight="600">One skill bundle contract, multiple runtime surfaces, cloud and AI signals in one repo-native security flow.</text>
    <text x="84" y="179" fill="#8ea1bb" font-size="18">OCSF-first for event streams. Native where operational fidelity matters. Same skills underneath CLI, MCP, CI, and runners.</text>

    <rect x="84" y="216" width="1432" height="120" rx="28" fill="#0e172a" stroke="#41536f" stroke-width="2"/>
    <text x="118" y="255" fill="#93c5fd" font-size="16" font-weight="800" letter-spacing="2">EXTERNAL SIGNALS</text>

    <g transform="translate(118,276)" filter="url(#softShadow)">
      <g transform="translate(0,0)">
        <use href="#aws" width="48" height="48"/>
        <text x="58" y="22" fill="#f8fafc" font-size="18" font-weight="700">Cloud APIs</text>
        <text x="58" y="40" fill="#94a3b8" font-size="13">AWS, GCP, Azure</text>
      </g>
      <g transform="translate(250,0)">
        <use href="#k8s" width="48" height="48"/>
        <text x="58" y="22" fill="#f8fafc" font-size="18" font-weight="700">Raw and audit logs</text>
        <text x="58" y="40" fill="#94a3b8" font-size="13">CloudTrail, K8s, object feeds</text>
      </g>
      <g transform="translate(560,0)">
        <use href="#okta" width="48" height="48"/>
        <text x="58" y="22" fill="#f8fafc" font-size="18" font-weight="700">Identity feeds</text>
        <text x="58" y="40" fill="#94a3b8" font-size="13">Okta, Entra, Workspace</text>
      </g>
      <g transform="translate(844,0)">
        <use href="#dbx" width="48" height="48"/>
        <text x="58" y="22" fill="#f8fafc" font-size="18" font-weight="700">Warehouses</text>
        <text x="58" y="40" fill="#94a3b8" font-size="13">Snowflake, Databricks, ClickHouse</text>
      </g>
      <g transform="translate(1128,0)">
        <use href="#azure" width="48" height="48"/>
        <text x="58" y="22" fill="#f8fafc" font-size="18" font-weight="700">Agent runtime events</text>
        <text x="58" y="40" fill="#94a3b8" font-size="13">MCP proxy and tool metadata</text>
      </g>
    </g>

    <g transform="translate(84,376)" filter="url(#softShadow)">
      <rect x="0" y="0" width="1432" height="160" rx="32" fill="#0d2342" stroke="url(#intake)" stroke-width="2.5"/>
      <text x="34" y="38" fill="#93c5fd" font-size="16" font-weight="800" letter-spacing="1.8">INTAKE</text>
      <text x="34" y="78" fill="#f8fafc" font-size="30" font-weight="800">Turn raw signals and live state into stable repo-owned contracts</text>
      <text x="34" y="108" fill="#b7c5d8" font-size="17">Ingest normalizes source-specific payloads. Discover reads live cloud or AI state directly. Both feed the same downstream contract surface.</text>

      <rect x="34" y="120" width="660" height="24" rx="12" fill="#1e40af"/>
      <rect x="738" y="120" width="660" height="24" rx="12" fill="#3157d2"/>
      <text x="58" y="138" fill="#ffffff" font-size="16" font-weight="800">L1 Ingest</text>
      <text x="762" y="138" fill="#ffffff" font-size="16" font-weight="800">L2 Discover</text>
      <text x="58" y="160" fill="#dbeafe" font-size="15">CloudTrail • Azure Activity • GCP audit • K8s audit • Okta • Entra • Workspace • MCP proxy</text>
      <text x="762" y="160" fill="#dbeafe" font-size="15">environment graph • AI BOM • control evidence • cloud control evidence • live inventory</text>
    </g>

    <g transform="translate(84,564)" filter="url(#softShadow)">
      <rect x="0" y="0" width="1432" height="160" rx="32" fill="#0a3031" stroke="url(#analyze)" stroke-width="2.5"/>
      <text x="34" y="38" fill="#99f6e4" font-size="16" font-weight="800" letter-spacing="1.8">ANALYZE</text>
      <text x="34" y="78" fill="#f8fafc" font-size="30" font-weight="800">Turn events into findings and controls into benchmark evidence</text>
      <text x="34" y="108" fill="#bad9d4" font-size="17">Detect focuses on deterministic attack signals. Evaluate focuses on posture and control evidence. Same repo contract, different question.</text>

      <rect x="34" y="120" width="660" height="24" rx="12" fill="#14877f"/>
      <rect x="738" y="120" width="660" height="24" rx="12" fill="#166534"/>
      <text x="58" y="138" fill="#ffffff" font-size="16" font-weight="800">L3 Detect</text>
      <text x="762" y="138" fill="#ffffff" font-size="16" font-weight="800">L4 Evaluate</text>
      <text x="58" y="160" fill="#ddfff6" font-size="15">lateral movement • K8s privilege escalation • MFA fatigue • Entra • Workspace • MCP tool drift</text>
      <text x="762" y="160" fill="#dcfce7" font-size="15">CIS AWS / GCP / Azure / K8s • container • model-serving • GPU cluster • control benchmarks</text>
    </g>

    <g transform="translate(84,752)" filter="url(#softShadow)">
      <rect x="0" y="0" width="1432" height="160" rx="32" fill="#311814" stroke="url(#act)" stroke-width="2.5"/>
      <text x="34" y="38" fill="#fdba74" font-size="16" font-weight="800" letter-spacing="1.8">ACT</text>
      <text x="34" y="78" fill="#f8fafc" font-size="30" font-weight="800">Render outputs cleanly or take guarded action with audit wrapped around every write</text>
      <text x="34" y="108" fill="#dcc2c2" font-size="17">View is the delivery edge. Remediate is the HITL write edge. Both sit on the same tested bundle model.</text>

      <rect x="34" y="120" width="660" height="24" rx="12" fill="#9333ea"/>
      <rect x="738" y="120" width="660" height="24" rx="12" fill="#c2410c"/>
      <text x="58" y="138" fill="#ffffff" font-size="16" font-weight="800">L5 Remediate</text>
      <text x="762" y="138" fill="#ffffff" font-size="16" font-weight="800">L6 View</text>
      <text x="58" y="160" fill="#f3e8ff" font-size="15">IAM departures • dry-run-first • human approval • dual audit in DynamoDB + S3</text>
      <text x="762" y="160" fill="#ffedd5" font-size="15">SARIF • Mermaid attack flow • downstream review artifacts and CI-native delivery</text>
    </g>

    <rect x="84" y="928" width="1432" height="24" rx="12" fill="#1b263a"/>
    <rect x="84" y="928" width="420" height="24" rx="12" fill="#273449"/>
    <rect x="548" y="928" width="368" height="24" rx="12" fill="#273449"/>
    <rect x="956" y="928" width="560" height="24" rx="12" fill="#273449"/>
    <text x="100" y="945" fill="#f8fafc" font-size="13" font-weight="700">Shared skill bundle contract</text>
    <text x="260" y="945" fill="#d7e2f2" font-size="13">SKILL.md • REFERENCES.md • src/ • tests</text>
    <text x="564" y="945" fill="#f8fafc" font-size="13" font-weight="700">Edge layers</text>
    <text x="652" y="945" fill="#d7e2f2" font-size="13">source-* • sink-* • packs/*</text>
    <text x="974" y="945" fill="#f8fafc" font-size="13" font-weight="700">Runtime surfaces</text>
    <text x="1088" y="945" fill="#d7e2f2" font-size="13">CLI • CI • MCP • AWS/GCP/Azure runners • same implementation underneath</text>
  </g>
</svg>
