<svg xmlns="http://www.w3.org/2000/svg" width="1280" height="460" viewBox="0 0 1280 460" role="img" aria-labelledby="title desc">
  <title id="title">Runtime surfaces use one shared skill contract</title>
  <desc id="desc">CLI, CI, MCP, and persistent runners call the same skill contract and implementation bundle.</desc>
  <rect width="1280" height="460" fill="#08111f"/>
  <rect x="24" y="24" width="1232" height="412" rx="28" fill="#0f172a" stroke="#334155"/>

  <g font-family="Arial, sans-serif">
    <text x="56" y="72" fill="#f8fafc" font-size="32" font-weight="700">One skill contract, many runtime surfaces</text>
    <text x="56" y="102" fill="#94a3b8" font-size="18">Runtimes add scheduling, gating, and transport. They do not create a second implementation model.</text>

    <rect x="56" y="148" width="250" height="190" rx="22" fill="#172554" stroke="#60a5fa"/>
    <text x="84" y="188" fill="#dbeafe" font-size="24" font-weight="700">Access paths</text>
    <text x="84" y="224" fill="#eff6ff" font-size="18" font-weight="700">CLI / Unix pipes</text>
    <text x="84" y="250" fill="#cbd5e1" font-size="16">local runs and pipelines</text>
    <text x="84" y="282" fill="#eff6ff" font-size="18" font-weight="700">CI and MCP</text>
    <text x="84" y="308" fill="#cbd5e1" font-size="16">checks, agents, guarded actions</text>

    <rect x="390" y="120" width="500" height="246" rx="24" fill="#111827" stroke="#94a3b8"/>
    <text x="420" y="162" fill="#f8fafc" font-size="28" font-weight="700">Shared skill bundle</text>
    <text x="420" y="194" fill="#94a3b8" font-size="17">The same repo-owned contract and code path sits behind every wrapper.</text>

    <rect x="424" y="226" width="180" height="102" rx="18" fill="#083344" stroke="#2dd4bf"/>
    <text x="450" y="258" fill="#ccfbf1" font-size="22" font-weight="700">Contract</text>
    <text x="450" y="286" fill="#ecfeff" font-size="15">SKILL.md</text>
    <text x="450" y="306" fill="#cbd5e1" font-size="14">approval, formats, side effects</text>

    <rect x="646" y="226" width="210" height="102" rx="18" fill="#3b0764" stroke="#c084fc"/>
    <text x="674" y="258" fill="#f3e8ff" font-size="22" font-weight="700">Implementation</text>
    <text x="674" y="286" fill="#f8fafc" font-size="15">src/ + tests/ + REFERENCES.md</text>
    <text x="674" y="306" fill="#ddd6fe" font-size="14">one code path, deterministic outputs</text>

    <rect x="974" y="148" width="250" height="190" rx="22" fill="#1f2937" stroke="#94a3b8"/>
    <text x="1002" y="188" fill="#f8fafc" font-size="24" font-weight="700">Outputs</text>
    <text x="1002" y="224" fill="#f8fafc" font-size="18" font-weight="700">repo-native, OCSF, bridge</text>
    <text x="1002" y="250" fill="#cbd5e1" font-size="16">data streams and evidence</text>
    <text x="1002" y="282" fill="#f8fafc" font-size="18" font-weight="700">SARIF, Mermaid, actions</text>
    <text x="1002" y="308" fill="#cbd5e1" font-size="16">exports and audited write paths</text>

    <path d="M306 244 L390 244" stroke="#60a5fa" stroke-width="5" fill="none"/>
    <path d="M890 244 L974 244" stroke="#94a3b8" stroke-width="5" fill="none"/>

    <rect x="56" y="376" width="1168" height="34" rx="12" fill="#111827" stroke="#475569"/>
    <text x="84" y="399" fill="#f8fafc" font-size="16" font-weight="700">Rule:</text>
    <text x="136" y="399" fill="#cbd5e1" font-size="16">wrappers may add gating, caller context, queues, or sinks; they must not fork the skill model.</text>
  </g>
</svg>
