<svg xmlns="http://www.w3.org/2000/svg" width="1280" height="540" viewBox="0 0 1280 540" role="img" aria-labelledby="title desc">
  <title id="title">Start here guide for cloud-ai-security-skills</title>
  <desc id="desc">A simplified operator map showing inputs, skill layers, outputs, and runtime surfaces.</desc>
  <rect width="1280" height="540" fill="#08111f"/>
  <rect x="24" y="24" width="1232" height="492" rx="28" fill="#0f172a" stroke="#334155"/>

  <g font-family="Arial, sans-serif">
    <text x="56" y="72" fill="#f8fafc" font-size="32" font-weight="700">Start here</text>
    <text x="56" y="102" fill="#94a3b8" font-size="18">Pick an input, choose a layer, then decide whether you need repo-native or OCSF output.</text>

    <rect x="56" y="144" width="304" height="244" rx="22" fill="#172554" stroke="#60a5fa"/>
    <text x="84" y="184" fill="#dbeafe" font-size="24" font-weight="700">1. Inputs</text>
    <text x="84" y="220" fill="#eff6ff" font-size="18" font-weight="700">Raw logs</text>
    <text x="84" y="246" fill="#cbd5e1" font-size="16">CloudTrail, Azure Activity, GCP Audit</text>
    <text x="84" y="268" fill="#cbd5e1" font-size="16">VPC / NSG flow, K8s audit, MCP proxy</text>
    <text x="84" y="304" fill="#eff6ff" font-size="18" font-weight="700">Identity and inventory</text>
    <text x="84" y="330" fill="#cbd5e1" font-size="16">Okta, Entra, Workspace, cloud assets, AI services</text>

    <rect x="488" y="120" width="304" height="292" rx="22" fill="#083344" stroke="#2dd4bf"/>
    <text x="518" y="160" fill="#ccfbf1" font-size="24" font-weight="700">2. Skill layers</text>
    <text x="518" y="198" fill="#f8fafc" font-size="18" font-weight="700">Ingest</text>
    <text x="518" y="222" fill="#cbd5e1" font-size="16">normalize one source</text>
    <text x="518" y="254" fill="#f8fafc" font-size="18" font-weight="700">Discover / detect / evaluate</text>
    <text x="518" y="278" fill="#cbd5e1" font-size="16">inventory, findings, benchmarks, evidence</text>
    <text x="518" y="310" fill="#f8fafc" font-size="18" font-weight="700">View / remediate</text>
    <text x="518" y="334" fill="#cbd5e1" font-size="16">exports or guarded write workflows</text>
    <text x="518" y="376" fill="#99f6e4" font-size="15">The same skill bundle runs everywhere: SKILL.md + src/ + tests/.</text>

    <rect x="920" y="144" width="304" height="244" rx="22" fill="#3b0764" stroke="#c084fc"/>
    <text x="952" y="184" fill="#f3e8ff" font-size="24" font-weight="700">3. Outputs</text>
    <text x="952" y="220" fill="#f8fafc" font-size="18" font-weight="700">repo-native JSONL</text>
    <text x="952" y="246" fill="#ddd6fe" font-size="16">stable repo schema with deterministic UIDs</text>
    <text x="952" y="282" fill="#f8fafc" font-size="18" font-weight="700">OCSF JSONL</text>
    <text x="952" y="308" fill="#ddd6fe" font-size="16">interoperable wire format for downstream tools</text>
    <text x="952" y="344" fill="#f8fafc" font-size="18" font-weight="700">Exports and actions</text>
    <text x="952" y="370" fill="#ddd6fe" font-size="16">SARIF, Mermaid, evidence, audited remediation</text>

    <path d="M360 264 L488 264" stroke="#60a5fa" stroke-width="5" fill="none"/>
    <path d="M792 264 L920 264" stroke="#2dd4bf" stroke-width="5" fill="none"/>

    <rect x="56" y="430" width="1168" height="46" rx="14" fill="#111827" stroke="#475569"/>
    <text x="84" y="459" fill="#f8fafc" font-size="17" font-weight="700">Run the same skill from:</text>
    <text x="310" y="459" fill="#cbd5e1" font-size="17">CLI</text>
    <text x="352" y="459" fill="#64748b" font-size="17">|</text>
    <text x="372" y="459" fill="#cbd5e1" font-size="17">CI</text>
    <text x="401" y="459" fill="#64748b" font-size="17">|</text>
    <text x="421" y="459" fill="#cbd5e1" font-size="17">MCP</text>
    <text x="468" y="459" fill="#64748b" font-size="17">|</text>
    <text x="488" y="459" fill="#cbd5e1" font-size="17">persistent runners</text>
    <text x="670" y="459" fill="#64748b" font-size="17">|</text>
    <text x="690" y="459" fill="#cbd5e1" font-size="17">customer sinks</text>
  </g>
</svg>
